<svg xmlns="http://www.w3.org/2000/svg">
  <symbol id="icon-search" viewBox="0 0 24 24" fill="none" stroke="currentColor" stroke-width="2" stroke-linecap="round" stroke-linejoin="round">
    <circle cx="11" cy="11" r="7"/>
    <path d="M20 20l-3.5-3.5"/>
  </symbol>
  <symbol id="icon-filter" viewBox="0 0 24 24" fill="none" stroke="currentColor" stroke-width="2" stroke-linecap="round" stroke-linejoin="round">
    <path d="M4 5h16l-6.5 8.2V19l-3 1.5v-7.3L4 5z"/>
  </symbol>
  <symbol id="icon-close" viewBox="0 0 24 24" fill="none" stroke="currentColor" stroke-width="2" stroke-linecap="round" stroke-linejoin="round">
    <path d="M6 6l12 12M18 6L6 18"/>
  </symbol>
  <symbol id="icon-check" viewBox="0 0 24 24" fill="none" stroke="currentColor" stroke-width="2" stroke-linecap="round" stroke-linejoin="round">
    <path d="M5 12l5 5L20 7"/>
  </symbol>
  <symbol id="icon-chevron-left" viewBox="0 0 24 24" fill="none" stroke="currentColor" stroke-width="2" stroke-linecap="round" stroke-linejoin="round">
    <path d="M15 6l-6 6 6 6"/>
  </symbol>
  <symbol id="icon-chevron-right" viewBox="0 0 24 24" fill="none" stroke="currentColor" stroke-width="2" stroke-linecap="round" stroke-linejoin="round">
    <path d="M9 6l6 6-6 6"/>
  </symbol>
  <symbol id="icon-chevron-up" viewBox="0 0 24 24" fill="none" stroke="currentColor" stroke-width="2" stroke-linecap="round" stroke-linejoin="round">
    <path d="M6 15l6-6 6 6"/>
  </symbol>
  <symbol id="icon-chevron-down" viewBox="0 0 24 24" fill="none" stroke="currentColor" stroke-width="2" stroke-linecap="round" stroke-linejoin="round">
    <path d="M6 9l6 6 6-6"/>
  </symbol>
  <symbol id="icon-star" viewBox="0 0 24 24" fill="none" stroke="currentColor" stroke-width="2" stroke-linecap="round" stroke-linejoin="round">
    <path d="M12 3.6l2.4 5.7 6.2.6-4.7 4.1 1.4 6.1L12 16.8 6.7 20.1l1.4-6.1L3.4 9.9l6.2-.6L12 3.6z"/>
  </symbol>
  <symbol id="icon-phone" viewBox="0 0 24 24" fill="none" stroke="currentColor" stroke-width="2" stroke-linecap="round" stroke-linejoin="round">
    <path d="M7 3h4l1.5 4-2.2 1.6a12 12 0 0 0 5.1 5.1L17 11.5 21 13v4c0 1-1 2-2.2 2C9.6 19 5 14.4 5 5.2 5 4 6 3 7 3z"/>
  </symbol>
  <symbol id="icon-location" viewBox="0 0 24 24" fill="none" stroke="currentColor" stroke-width="2" stroke-linecap="round" stroke-linejoin="round">
    <path d="M12 21s7-6.2 7-11.2A7 7 0 0 0 5 9.8C5 14.8 12 21 12 21z"/>
    <circle cx="12" cy="9.5" r="2.3"/>
  </symbol>
  <symbol id="icon-clock" viewBox="0 0 24 24" fill="none" stroke="currentColor" stroke-width="2" stroke-linecap="round" stroke-linejoin="round">
    <circle cx="12" cy="12" r="8"/>
    <path d="M12 8v4.5l3 2"/>
  </symbol>
  <symbol id="icon-wallet" viewBox="0 0 24 24" fill="none" stroke="currentColor" stroke-width="2" stroke-linecap="round" stroke-linejoin="round">
    <path d="M4 8h14a2 2 0 0 1 2 2v8a2 2 0 0 1-2 2H6a2 2 0 0 1-2-2V8z"/>
    <path d="M4 8l1.6-3.2A2 2 0 0 1 7.4 4H18"/>
    <circle cx="16.5" cy="14" r="1"/>
  </symbol>
  <symbol id="icon-menu" viewBox="0 0 24 24" fill="none" stroke="currentColor" stroke-width="2" stroke-linecap="round" stroke-linejoin="round">
    <path d="M4 7h16M4 12h16M4 17h16"/>
  </symbol>
  <symbol id="icon-home" viewBox="0 0 24 24" fill="none" stroke="currentColor" stroke-width="2" stroke-linecap="round" stroke-linejoin="round">
    <path d="M4 11.5 12 5l8 6.5"/>
    <path d="M6 10.5V20h12v-9.5"/>
    <path d="M10 20v-5h4v5"/>
  </symbol>
  <symbol id="icon-profile" viewBox="0 0 24 24" fill="none" stroke="currentColor" stroke-width="2" stroke-linecap="round" stroke-linejoin="round">
    <circle cx="12" cy="8" r="3.2"/>
    <path d="M5.5 19.2c.8-3.2 3.4-5 6.5-5s5.7 1.8 6.5 5"/>
  </symbol>
  <symbol id="icon-sphere-production" viewBox="0 0 24 24" fill="none" stroke="currentColor" stroke-width="2" stroke-linecap="round" stroke-linejoin="round">
    <circle cx="12" cy="12" r="3"/>
    <path d="M12 5v2M12 17v2M5 12h2M17 12h2M7.1 7.1l1.4 1.4M15.5 15.5l1.4 1.4M7.1 16.9l1.4-1.4M15.5 8.5l1.4-1.4"/>
  </symbol>
  <symbol id="icon-sphere-construction" viewBox="0 0 24 24" fill="none" stroke="currentColor" stroke-width="2" stroke-linecap="round" stroke-linejoin="round">
    <path d="M4 20h16M6 20V11l6-5 6 5v9"/>
    <path d="M10 20v-5h4v5"/>
  </symbol>
  <symbol id="icon-sphere-trade" viewBox="0 0 24 24" fill="none" stroke="currentColor" stroke-width="2" stroke-linecap="round" stroke-linejoin="round">
    <path d="M6 8h15l-1.5 9H8L6 8z"/>
    <path d="M6 8L5 5H3"/>
    <circle cx="9.5" cy="20" r="1"/>
    <circle cx="17.5" cy="20" r="1"/>
  </symbol>
  <symbol id="icon-sphere-transport" viewBox="0 0 24 24" fill="none" stroke="currentColor" stroke-width="2" stroke-linecap="round" stroke-linejoin="round">
    <path d="M3 15h13V8H7L3 12v3z"/>
    <path d="M16 15h3l2 3v2h-5v-5z"/>
    <circle cx="7.5" cy="19" r="1.5"/>
    <circle cx="17.5" cy="19" r="1.5"/>
  </symbol>
  <symbol id="icon-sphere-medicine" viewBox="0 0 24 24" fill="none" stroke="currentColor" stroke-width="2" stroke-linecap="round" stroke-linejoin="round">
    <path d="M9 4h6v4h4v6h-4v4H9v-4H5V8h4V4z"/>
  </symbol>
  <symbol id="icon-sphere-education" viewBox="0 0 24 24" fill="none" stroke="currentColor" stroke-width="2" stroke-linecap="round" stroke-linejoin="round">
    <path d="M3 10l9-5 9 5-9 5-9-5z"/>
    <path d="M7 12.2V16c0 1.5 2.2 3 5 3s5-1.5 5-3v-3.8"/>
  </symbol>
  <symbol id="icon-sphere-it" viewBox="0 0 24 24" fill="none" stroke="currentColor" stroke-width="2" stroke-linecap="round" stroke-linejoin="round">
    <rect x="3" y="5" width="18" height="12" rx="2"/>
    <path d="M8 21h8M12 17v4"/>
  </symbol>
  <symbol id="icon-sphere-services" viewBox="0 0 24 24" fill="none" stroke="currentColor" stroke-width="2" stroke-linecap="round" stroke-linejoin="round">
    <path d="M8 13l-3-3a2.5 2.5 0 1 1 3.5-3.5l1.2 1.2"/>
    <path d="M16 11l3 3a2.5 2.5 0 1 1-3.5 3.5L14.3 16.3"/>
    <path d="M9.5 14.5l5-5"/>
  </symbol>
</svg>
